<svg version="1.0" xmlns="http://www.w3.org/2000/svg" width="682.667" height="682.667" viewBox="0 0 512 512">
  <path d="M19.7 36.6c-3.5 1.1-6.6 3.2-10.7 7.2-9.7 9.5-9-.7-9 132.4V292h321.9l.3-71.3.3-71.2 3.2-6.8c6.1-12.8 18-22.2 31.2-24.7 3.3-.6 32.8-1 75.7-1 43.2 0 71.3-.4 72.8-1 1.4-.5 3.5-2.4 4.6-4.2 1.7-2.9 2-5.1 2-17.5 0-7.8-.5-16.6-1.1-19.5-3.5-16.6-15.8-30.7-32.5-37l-5.9-2.3-224-.2c-196.3-.2-224.6 0-228.8 1.3zm202.7 83.5c7.3 2.7 14.8 9.6 18.3 16.7l2.8 5.7v80l-2.6 5.5c-4.7 9.7-12.1 15.8-22.4 18.5-8.2 2.1-116.7 2.2-125.8.1-7.2-1.7-15.7-7.2-19.5-12.8-6-8.8-6.2-10.2-6.2-51.3 0-35.8.1-37.7 2.1-43.2 3.5-9.1 12.4-17.5 21.9-20.4 1.4-.4 30.3-.8 64.2-.8 59.9-.1 61.9 0 67.2 2z"/>
  <path d="M97.7 148.7c-.4.3-.7 15.5-.7 33.8 0 24.4.3 33.4 1.2 34.3 1.9 1.9 113.1 1.7 114.7-.2.8-.9 1.1-10.9.9-34.7l-.3-33.4-57.6-.3c-31.6-.1-57.9.1-58.2.5zM359.3 148.5c-1.8.8-4.2 2.9-5.3 4.7-1.9 3.2-2 4.9-2 71V292h75c41.3 0 75-.3 74.9-.8 0-.4-15.9-32.9-35.3-72.2l-35.2-71.5-34.4-.2c-27.9-.2-35.1 0-37.7 1.2zM0 361.6c0 28.4.3 40.8 1.2 43.8 1.6 5.4 9 12.8 14.4 14.4 2.8.8 12.2 1.2 28.7 1.2h24.5l1.7-5.2c5.6-17.3 18.2-31.6 35-39.8 11-5.5 18-7.1 30.5-7.1s19.5 1.6 30.5 7.1c16.7 8.2 29.6 22.8 35 39.8l1.7 5.2 52.5-.2 52.5-.3 2.2-6c3.7-10.1 8.6-17.6 17-26 13.3-13.2 28.8-19.6 47.6-19.6 16.1 0 29.3 4.2 41.6 13.3 10.8 8.1 20.4 21.1 24 32.8l1.9 6h23.1c25.9 0 29.2-.6 36.2-6.6 2.2-1.9 5.2-5.7 6.6-8.6l2.6-5.2V322H0v39.6z"/>
  <path d="M129.2 399.2c-11.8 1.8-23.7 11.1-29 22.6-3.7 8.1-4.3 20.4-1.3 28.3 3.1 8.1 7.5 14.3 13.2 18.5 7.9 5.7 14.1 7.8 23.9 7.8 11.2 0 18-2.7 26-10.1 28.6-26.4 5.8-73.3-32.8-67.1zM365 399.9c-9.5 3.1-18.8 10.5-23.6 18.7-3.7 6.4-5.7 17.1-4.4 24.7 5 31.2 41.9 44.4 64.8 23.2 10-9.2 14.7-22.3 12.4-34.5-2.5-13.4-10.2-23.9-21.7-29.5-5.1-2.5-7.3-3-15.5-3.2-5.2-.1-10.6.1-12 .6z"/>
</svg>
